<svg width="1191" height="1362" viewBox="0 0 1191 1362" fill="none" xmlns="http://www.w3.org/2000/svg">
<path fill-rule="evenodd" clip-rule="evenodd" d="M696.425 58.25L595.1 0L493.775 58.25V174.75L595.1 233L696.425 174.75V58.25ZM944.425 197.5L843.1 138L741.775 197.5V316.5L843.1 376L944.425 316.5V197.5ZM1077.1 282L1178.43 341.5V460.5L1077.1 520L975.775 460.5V341.5L1077.1 282ZM1190.43 624.5L1089.1 565L987.775 624.5V743.5L1089.1 803L1190.43 743.5V624.5ZM1089.1 848L1190.43 907.5V1026.5L1089.1 1086L987.775 1026.5V907.5L1089.1 848ZM944.425 1045.5L843.1 986L741.775 1045.5V1164.5L843.1 1224L944.425 1164.5V1045.5ZM595.1 1124L696.425 1183.5V1302.5L595.1 1362L493.775 1302.5V1183.5L595.1 1124ZM679.775 923.75L600.1 876L520.426 923.75V1019.25L600.1 1067L679.775 1019.25V923.75ZM600.6 604L671.181 646.25V730.75L600.6 773L530.019 730.75V646.25L600.6 604ZM142.181 959.25L71.6003 917L1.01924 959.25V1043.75L71.6003 1086L142.181 1043.75V959.25ZM321.6 473L386.119 510.5V585.5L321.6 623L257.081 585.5V510.5L321.6 473ZM387.119 792.5L322.6 755L258.081 792.5V867.5L322.6 905L387.119 867.5V792.5ZM44.6003 309L89.2006 334.25V384.75L44.6003 410L0 384.75V334.25L44.6003 309ZM911.775 781.75L832.1 734L752.426 781.75V877.25L832.1 925L911.775 877.25V781.75ZM843.1 459L922.775 506.75V602.25L843.1 650L763.426 602.25V506.75L843.1 459ZM679.775 352.75L600.1 305L520.426 352.75V448.25L600.1 496L679.775 448.25V352.75ZM323.1 151L402.775 198.75V294.25L323.1 342L243.426 294.25V198.75L323.1 151ZM402.775 1065.75L323.1 1018L243.426 1065.75V1161.25L323.1 1209L402.775 1161.25V1065.75Z" fill="grey"/>
</svg>
